<svg xmlns="http://www.w3.org/2000/svg" width="512" height="512" viewBox="0 0 512 512">
  <rect width="512" height="512" rx="96" fill="#16243D"/>
  <g transform="translate(106,120) scale(2.7)">
    <polygon points="0,80 35,60 70,80 35,100" fill="#0e1a2e"/>
    <polygon points="0,80 0,95 35,115 35,100" fill="#13243c"/>
    <polygon points="70,80 70,95 35,115 35,100" fill="#1c3150"/>
    <polygon points="12,52 47,32 82,52 47,72" fill="#24364f"/>
    <polygon points="12,52 12,64 47,84 47,72" fill="#2b405d"/>
    <polygon points="82,52 82,64 47,84 47,72" fill="#374d6b"/>
    <polygon points="28,26 63,6 98,26 63,46" fill="#F2A33C"/>
    <polygon points="28,26 28,38 63,58 63,46" fill="#d98a28"/>
    <polygon points="98,26 98,38 63,58 63,46" fill="#e8962f"/>
  </g>
</svg>
